<svg width="100" height="85" viewBox="0 0 100 85" fill="none" xmlns="http://www.w3.org/2000/svg">
<path d="M17.0049 15.7548C12.4272 23.2618 13.0215 30.8886 13.652 38.9801C14.1116 44.8773 16.123 70.6779 31.3732 76.8996C37.7899 79.5176 48.0303 75.9943 68.2499 68.8417C79.298 64.9331 83.8898 64.859 88.8442 60.7838C94.9781 55.7383 102.17 45.9697 99.3804 38.9798C96.8371 32.6074 88.6065 35.0827 78.3078 27.6041C65.7305 18.4716 69.4839 8.59171 59.6287 2.95655C47.5181 -3.96769 25.5987 1.66111 17.0049 15.7548Z" fill="#E8F5FF"/>
<path d="M34.1584 71.7969C21.6595 64.0345 18.6566 51.1956 18.0839 48.431C15.6617 36.7355 18.3269 19.8618 31.6466 11.6419C41.2907 5.68998 53.5866 6.08616 61.7861 10.1503C65.0477 11.767 65.87 13.076 76.8559 22.579C87.995 32.2147 89.1449 31.5187 90.4188 34.0134C95.747 44.4495 86.4937 65.1638 69.8236 73.2882C68.8315 73.772 50.8452 82.1604 34.1584 71.7969Z" fill="#ECFFF2"/>
<path d="M77.3237 16.1303C76.1116 18.1681 81.6061 24.8001 84.0228 24.0046C85.5242 23.51 86.5615 19.9076 84.8606 17.3732C82.8282 14.345 78.1551 14.7323 77.3237 16.1303Z" fill="#FBF3DA"/>
<path d="M14.0649 11.8913C14.0649 12.5779 13.5028 13.1342 12.809 13.1342C12.1153 13.1342 11.5532 12.5779 11.5532 11.8913C11.5532 11.2047 12.1153 10.6484 12.809 10.6484C13.5027 10.6484 14.0649 11.2047 14.0649 11.8913Z" fill="#FAE3A6"/>
<path d="M18.084 68.3166C18.084 68.8654 17.6339 69.3109 17.0794 69.3109C16.5248 69.3109 16.0747 68.8654 16.0747 68.3166C16.0747 67.7677 16.5248 67.3223 17.0794 67.3223C17.6339 67.3223 18.084 67.7677 18.084 68.3166Z" fill="#FAE3A6"/>
<path d="M2.51163 47.1882C2.51164 47.8747 1.94954 48.4311 1.25582 48.4311C0.562111 48.4311 7.02194e-06 47.8747 4.52328e-06 47.1882C2.02462e-06 46.5016 0.562102 45.9453 1.25581 45.9453C1.94953 45.9453 2.51163 46.5016 2.51163 47.1882Z" fill="#FDF6E2"/>
<path d="M95.4419 62.8478C95.4419 63.3967 94.9918 63.8421 94.4373 63.8421C93.8827 63.8421 93.4326 63.3967 93.4326 62.8478C93.4326 62.299 93.8827 61.8535 94.4373 61.8535C94.9918 61.8535 95.4419 62.299 95.4419 62.8478Z" fill="#10A242"/>
<path d="M71.3297 6.4215C71.3297 6.83364 70.9922 7.16722 70.5762 7.16723C70.1603 7.16723 69.8228 6.83364 69.8228 6.4215C69.8228 6.00937 70.1603 5.67578 70.5762 5.67578C70.9922 5.67578 71.3297 6.00936 71.3297 6.4215Z" fill="#10A242"/>
<path d="M97.9534 17.1104C97.9534 17.3849 97.7288 17.6076 97.4511 17.6076C97.1733 17.6076 96.9487 17.3849 96.9487 17.1104C96.9487 16.836 97.1733 16.6133 97.4511 16.6133C97.7288 16.6133 97.9534 16.836 97.9534 17.1104Z" fill="#10A242"/>
<path d="M9.04165 28.7926C9.04165 29.2047 8.70459 29.5383 8.28816 29.5383C7.87173 29.5383 7.53467 29.2047 7.53467 28.7926C7.53467 28.3805 7.87173 28.0469 8.28816 28.0469C8.70458 28.0469 9.04165 28.3805 9.04165 28.7926Z" fill="#10A242"/>
<path d="M10.046 37.4944C10.046 38.5926 9.1463 39.483 8.03666 39.483C6.92702 39.483 6.02735 38.5927 6.02735 37.4945C6.02735 36.3963 6.92701 35.5059 8.03665 35.5059C9.14628 35.5058 10.046 36.3962 10.046 37.4944Z" fill="#FBF3DA"/>
<path d="M76.3533 12.1379C76.3533 12.9617 75.6787 13.6294 74.8463 13.6294C74.014 13.6294 73.3394 12.9617 73.3394 12.1379C73.3394 11.3142 74.014 10.6465 74.8463 10.6465C75.6787 10.6465 76.3533 11.3141 76.3533 12.1379Z" fill="#FBF3DA"/>
<path d="M7.42864 51.5924C7.95458 54.534 11.3533 56.103 12.256 55.4642C13.6309 54.4903 10.9861 47.1354 9.131 47.2155C8.10576 47.2597 7.06947 49.5849 7.42864 51.5924Z" fill="#FBF3DA"/>
<path d="M63.8441 54.7012L63.844 84.9997L56.0243 79.7592L56.0244 54.7012L63.8441 54.7012Z" fill="#EE4439"/>
<path d="M46.0141 54.7012L46.014 79.7592L38.1932 84.9997L38.1934 54.7012L46.0141 54.7012Z" fill="#EE4439"/>
<path d="M56.0241 54.7012L56.024 79.7597L51.019 76.4025L46.0141 79.7596L46.0142 54.7012L56.0241 54.7012Z" fill="#FFE4E4"/>
<path d="M57.202 7.40592L52.5683 8.89593C51.5716 9.2195 50.4914 9.2195 49.4902 8.90036L44.8609 7.41382C42.8088 6.75489 40.563 7.47924 39.2925 9.20724L36.4335 13.1053C35.8174 13.9487 34.9444 14.5752 33.9472 14.8987L29.3134 16.3932C27.2658 17.0521 25.8756 18.9443 25.8756 21.0815L25.8801 25.9006C25.8801 26.9406 25.5487 27.9556 24.9326 28.7994L22.0736 32.6975C20.8036 34.4255 20.8076 36.7672 22.0776 38.4908L24.9411 42.3889C25.5612 43.2327 25.8926 44.2437 25.8926 45.2877L25.8966 50.1029C25.901 52.24 27.2908 54.1323 29.3428 54.7907L33.9726 56.2772C34.9738 56.5964 35.8463 57.2229 36.4669 58.0667L39.3299 61.9608C40.5999 63.6883 42.8462 64.4087 44.8983 63.7503L49.5276 62.2554C50.5288 61.9357 51.605 61.9313 52.6062 62.2554L57.239 63.7414C59.2915 64.4008 61.5378 63.6755 62.8039 61.948L65.6623 58.046C66.2829 57.2026 67.1519 56.5761 68.1531 56.2526L72.7824 54.7621C74.8345 54.0987 76.2247 52.2074 76.2202 50.0703L76.2162 45.2507C76.2162 44.2107 76.5511 43.1952 77.1677 42.3563L80.0262 38.4538C81.2922 36.7263 81.2922 34.388 80.0227 32.66L77.1598 28.7624C76.5392 27.923 76.2038 26.9076 76.2038 25.8675L76.1998 21.0484C76.1998 18.9108 74.8095 17.0195 72.7575 16.3645L68.1237 14.878C67.1225 14.5544 66.254 13.9279 65.6334 13.089L62.7704 9.19095C61.8155 7.89176 60.306 7.16201 58.7448 7.16201C58.2301 7.16201 57.7098 7.24119 57.202 7.40592Z" fill="url(#paint0_linear_5_744)"/>
<path d="M30.3145 35.9438C30.3145 46.9373 39.3585 55.8875 50.4665 55.8875C61.5749 55.8875 70.6184 46.9372 70.6184 35.9437C70.6183 24.9502 61.5748 15.9999 50.4664 15.9999C39.3584 16 30.3145 24.9503 30.3145 35.9438Z" fill="url(#paint1_linear_5_744)"/>
<path d="M50.4665 14.6523C38.5829 14.6523 28.9536 24.1824 28.9537 35.9435C28.9537 47.7051 38.583 57.2346 50.4666 57.2346C62.3501 57.2346 71.9794 47.705 71.9794 35.9434C71.9793 24.1823 62.35 14.6523 50.4665 14.6523ZM50.4666 55.1491C39.77 55.1491 31.0609 46.5303 31.0609 35.9435C31.0609 25.3572 39.7699 16.7383 50.4665 16.7383C61.1635 16.7383 69.8721 25.3571 69.8721 35.9434C69.8722 46.5302 61.1636 55.1491 50.4666 55.1491Z" fill="white"/>
<path d="M50.4666 13.8339C38.1259 13.834 28.1265 23.7299 28.1265 35.9434C28.1266 48.1574 38.126 58.0538 50.4667 58.0538C62.8074 58.0537 72.8068 48.1573 72.8068 35.9433C72.8068 23.7298 62.8073 13.8339 50.4666 13.8339ZM50.4667 55.8876C39.3587 55.8876 30.3148 46.9374 30.3147 35.9434C30.3147 24.9499 39.3586 16.0001 50.4666 16.0001C61.5751 16 70.6186 24.9498 70.6186 35.9433C70.6186 46.9373 61.5752 55.8876 50.4667 55.8876Z" fill="#0B662A"/>
<path d="M63.2187 33.0581L45.3951 47.3921C44.7173 47.9374 43.7221 47.8425 43.1621 47.1791L36.76 39.5934C35.9586 38.6439 36.0872 37.2311 37.0472 36.4394C38.0066 35.6486 39.4327 35.7775 40.2316 36.7275L43.7604 40.9217C44.3198 41.587 45.3156 41.6834 45.9943 41.137L60.3642 29.5815C61.3341 28.8016 62.7591 28.9476 63.5471 29.9075C64.3357 30.8674 64.1886 32.2782 63.2187 33.0581Z" fill="#17AC4A"/>
<path d="M63.2187 31.4194L45.3951 45.7534C44.7173 46.2987 43.7221 46.2038 43.1621 45.5405L36.76 37.9548C35.9586 37.0052 36.0872 35.5924 37.0472 34.8007C38.0066 34.01 39.4327 34.1388 40.2316 35.0889L43.7604 39.283C44.3198 39.9483 45.3156 40.0447 45.9943 39.4984L60.3642 27.9428C61.3341 27.1629 62.7591 27.3089 63.5471 28.2688C64.3357 29.2287 64.1886 30.6395 63.2187 31.4194Z" fill="white"/>
<defs>
<linearGradient id="paint0_linear_5_744" x1="50.1605" y1="10.501" x2="50.9256" y2="60.1676" gradientUnits="userSpaceOnUse">
<stop stop-color="#3EEA79"/>
<stop offset="0.48" stop-color="#27D763"/>
<stop offset="1" stop-color="#10A242"/>
</linearGradient>
<linearGradient id="paint1_linear_5_744" x1="50.5141" y1="15.2904" x2="51.0359" y2="56.3513" gradientUnits="userSpaceOnUse">
<stop stop-color="#23BD59"/>
<stop offset="0.48" stop-color="#128339"/>
<stop offset="1" stop-color="#065622"/>
</linearGradient>
</defs>
</svg>
